<?xml version="1.0" standalone="no"?><!DOCTYPE svg PUBLIC "-//W3C//DTD SVG 1.1//EN" "http://www.w3.org/Graphics/SVG/1.1/DTD/svg11.dtd"><svg t="1540990754637" class="icon" style="" viewBox="0 0 1024 1024" version="1.1" xmlns="http://www.w3.org/2000/svg" p-id="1279" xmlns:xlink="http://www.w3.org/1999/xlink" width="200" height="200"><defs><style type="text/css"></style></defs><path d="M794.32142844 333.5238098q9.64285687 97.5-70.17857156 138.21428531 62.67857156 15 93.75 55.17857156t24.10714312 114.64285688q-3.75 38.03571469-17.41071469 66.96428531t-34.55357156 47.67857156-51.96428531 31.33928532-65.08928531 18.48214312-77.94642844 8.03571469l0 136.60714312-82.5 0 0-134.46428531q-42.85714313 0-65.35714313-0.53571469l0 135-82.5 0 0-136.60714312q-9.64285687 0-28.92857156 2.67857156t-29.46428531 2.67857156l-107.14285688 0 16.60714313-98.03571468 59.46428531 0q26.78571469 0 31.07142844-27.32142844l0-215.35714313 8.57142843 0q-3.21428531-0.53571469-8.57142843-0.53571468l0-153.75q-6.96428531-36.42857156-47.67857157-36.42857157l-59.46428531 0 0-87.85714312 113.57142844 0.53571469q34.28571469 0 51.96428531-0.53571469l0-135 82.5 0 0 132.32142844q43.92857156-1.07142844 65.35714313-1.07142844l0-131.25 82.5 0 0 135q42.32142844 3.75 75 12.05357156t60.53571469 24.10714313 44.19642843 41.78571468 19.55357157 61.33928532z m-115.17857156 291.96428531q0-19.28571469-8.03571469-34.28571469t-19.82142844-24.64285687-30.80357156-16.33928531-35.08928531-9.91071469-39.64285688-4.82142844-36.96428531-1.60714312-34.55357156 0.53571468-25.44642844 0.53571469l0 181.07142844q4.28571469 0 19.82142844 2.67857156t25.71428531 2.67857156 28.39285687-0.80357156 31.33928532-2.14285687 30.53571468-4.55357157 29.73214313-7.5 25.44642844-11.25 21.16071468-16.07142843 13.125-21.42857157 5.08928532-27.32142843z m-38.03571469-255q0-17.67857156-6.69642844-31.33928531t-16.33928531-22.5-25.71428531-15-29.46428532-8.83928531-32.94642843-4.28571469-31.07142844-1.33928531-28.92857156 0.53571468-21.16071469 2.67857157l0 164.46428531q2.67857156 0 18.48214312 2.67857156t24.91071469 0 26.78571469-1.07142844 29.46428531-2.94642843 27.58928531-5.89285688 25.98214313-9.91071469 19.82142844-14.46428531 14.46428531-20.625 4.82142844-27.32142844z" p-id="1280"></path></svg>