<?xml version="1.0" standalone="no"?><!DOCTYPE svg PUBLIC "-//W3C//DTD SVG 1.1//EN" "http://www.w3.org/Graphics/SVG/1.1/DTD/svg11.dtd"><svg t="1541039370377" class="icon" style="" viewBox="0 0 1152 1024" version="1.1" xmlns="http://www.w3.org/2000/svg" p-id="1308" xmlns:xlink="http://www.w3.org/1999/xlink" width="225" height="200"><defs><style type="text/css"></style></defs><path d="M786.3125 678.6875l60-60c9.375-9.375 25.6875-2.8125 25.6875 10.6875V902c0 49.6875-40.3125 90-90 90H122c-49.6875 0-90-40.3125-90-90V242c0-49.6875 40.3125-90 90-90h512.8125c13.3125 0 20.0625 16.125 10.6875 25.6875l-60 60c-2.8125 2.8125-6.5625 4.3125-10.6875 4.3125H122v660h660V689.1875c0-3.9375 1.5-7.6875 4.3125-10.5z m293.625-378.375L587.5625 792.6875l-169.5 18.75c-49.125 5.4375-90.9375-36-85.5-85.5l18.75-169.5L843.6875 64.0625c42.9375-42.9375 112.3125-42.9375 155.0625 0l81 81c42.9375 42.9375 42.9375 112.5 0.1875 155.25zM894.6875 358.25L785.75 249.3125 437.375 597.875l-13.6875 122.4375 122.4375-13.6875L894.6875 358.25z m121.5-149.4375l-81-81c-7.6875-7.6875-20.25-7.6875-27.75 0L849.5 185.75l108.9375 108.9375 57.9375-57.9375c7.5-7.875 7.5-20.25-0.1875-27.9375z" fill="" p-id="1309"></path></svg>