<?xml version="1.0" standalone="no"?><!DOCTYPE svg PUBLIC "-//W3C//DTD SVG 1.1//EN" "http://www.w3.org/Graphics/SVG/1.1/DTD/svg11.dtd"><svg t="1540541891403" class="icon" style="" viewBox="0 0 1024 1024" version="1.1" xmlns="http://www.w3.org/2000/svg" p-id="6225" xmlns:xlink="http://www.w3.org/1999/xlink" width="200" height="200"><defs><style type="text/css"></style></defs><path d="M911.242913 905.624962c-16.460904-20.868283-32.647561-54.524824-44.919049-91.580788-11.776208-36.331463-19.420305-75.377758-19.420305-108.025319L846.903559 542.962176c0-92.084255-37.805024-176.077228-98.457406-236.471736-32.647561-32.440853-69.254294-56.954153-108.531855-72.691579-19.410072-7.860015-38.299281-13.755282-58.444087-17.673521l95.293343-94.773504c5.869684-6.40078 9.525957-15.012925 9.525957-24.580838 0-19.150152-14.94334-34.381042-34.339086-34.381042L372.244003 62.389956c-9.061376 0-17.673521 3.194762-24.541953 9.841136-13.484106 13.758352-13.484106 35.362392 0 49.119721l94.77555 94.773504c-19.899212 3.919263-39.526225 9.81453-58.44204 17.673521-39.034015 15.737426-75.886341 40.250726-108.766193 72.691579-30.708396 30.682813-55.752792 67.790966-72.677253 108.530832-16.211217 39.526225-25.329898 82.997296-25.329898 127.940904l0 163.05668c0 32.647561-7.835456 71.693856-19.87056 108.025319-11.764951 36.08894-27.269064 68.993351-43.702338 89.61604-5.406127 6.40078-8.597819 14.506389-8.597819 23.092951 0 19.652596 15.245216 34.855856 34.146705 34.855856l745.242182 0c7.614421 0 15.230889-2.443655 21.617343-7.600095C920.825153 941.985078 923.279041 920.363641 911.242913 905.624962zM445.463608 566.519708c4.176113 3.929496 9.540284 6.40078 15.451924 6.40078l14.985296 0 15.476483 0 41.463344 0 15.477506 0 15.505136 0 2.211365 0.217964c15.941064 0.505513 31.171953 7.370875 42.201148 18.180058 11.287067 11.792581 18.451234 27.51568 18.451234 44.672432l0 19.681248 0 1.937119 0 46.173622c0 17.182334-6.646374 32.905434-18.451234 44.438095-11.287067 11.313673-27.241434 18.425651-44.412512 18.425651l-30.981618 0 0 17.933441c0 11.532661-9.048073 20.869307-20.335141 20.869307-11.821233 0-21.128203-9.335622-21.128203-20.869307l0-17.933441-30.461779 0c-17.198707 0-33.153074-7.111978-44.658106-18.425651-11.574616-11.532661-18.696828-27.255761-18.696828-44.438095 0-11.287067 9.332553-20.85498 21.097504-20.85498 11.301394 0 20.419052 9.567913 20.419052 20.85498 0 5.417383 2.689249 10.781554 6.387477 14.984273 4.176113 4.161786 9.540284 6.358825 15.451924 6.358825l14.985296 0 15.476483 0 41.463344 0 26.314319 0 4.668323 0c5.884011 0 11.272741-2.197038 15.448854-6.358825 3.919263-4.203742 6.14393-9.567913 6.14393-14.984273 0-22.601764 0-45.175899 0-67.791989 0-5.869684-2.702552-11.287067-6.633071-15.205307-3.686972-3.916193-9.349949-6.40078-14.959713-6.40078l-4.668323 0-26.314319 0-41.463344 0-15.476483 0-14.985296 0-2.470261 0c-16.173354-0.464581-31.160697-7.603165-42.462091-18.643616-11.30037-11.287067-18.669198-26.995841-18.669198-44.191478l0-21.128203 0-0.74906 0-24.296359 0-0.477884 0-21.11183c0-17.458627 7.367805-32.93511 18.669198-44.725644 11.779278-11.287067 27.733645-18.643616 44.932352-18.643616l30.461779 0 0-17.676591c0-11.790534 9.307993-20.87954 21.128203-20.87954 11.287067 0 20.335141 9.090029 20.335141 20.87954l0 17.676591 30.981618 0c17.171078 0 33.125445 7.357572 44.412512 18.643616 11.287067 11.790534 18.451234 27.267017 18.451234 44.725644 0 11.287067-9.335622 20.595061-20.390399 20.595061-11.818163 0-20.87954-9.307993-20.87954-20.595061 0-5.925966-2.224668-11.561313-6.14393-15.258519-4.176113-3.918239-9.564843-6.361895-15.448854-6.361895l-15.505136 0-15.477506 0-41.463344 0-15.476483 0-14.985296 0c-5.91164 0-11.275811 2.443655-15.451924 6.361895-3.698229 3.698229-6.387477 9.333576-6.387477 15.258519l0 21.11183 0 0.477884 0 24.296359 0 0.74906 0 21.128203C439.07613 557.415352 441.765379 562.835805 445.463608 566.519708z" p-id="6226"></path></svg>