<?xml version="1.0" standalone="no"?><!DOCTYPE svg PUBLIC "-//W3C//DTD SVG 1.1//EN" "http://www.w3.org/Graphics/SVG/1.1/DTD/svg11.dtd"><svg t="1540542335656" class="icon" style="" viewBox="0 0 1024 1024" version="1.1" xmlns="http://www.w3.org/2000/svg" p-id="877" xmlns:xlink="http://www.w3.org/1999/xlink" width="200" height="200"><defs><style type="text/css"></style></defs><path d="M523.62429667 458.60029667c-110.19756999-28.64165888-145.63555555-58.01149667-145.63555555-104.12942222 0-52.91425223 48.78791111-90.0513189 131.072-90.0513189 86.41043001 0 118.45025223 41.26340779 121.3629622 101.9448889h107.28486002c-3.15543666-83.74044445-54.37060779-159.95638557-155.83004444-184.95715556V75.09333333h-145.63555556v104.8576c-94.17765888 20.63170333-169.90814777 81.31318557-169.90814891 175.2481189 0 112.13937778 92.96403001 167.96634112 228.16237113 200.49161444 121.60568889 29.12711111 145.63555555 71.60414777 145.63555556 117.23662222 0 33.25345223-23.54441443 86.65315555-131.072 86.65315556-100.0030811 0-139.56740779-44.90429667-144.66465224-101.9448889h-107.04213333c6.06814777 106.31395555 85.43952555 165.78180779 178.88900779 185.92805888V948.90666667h145.63555556v-104.37214777c94.42038557-18.20444445 169.90814777-72.81777778 169.90814776-172.57813333 0-137.38287445-117.9648-184.47170333-228.16236999-213.3560889z" fill="" p-id="878"></path></svg>