<?xml version="1.0" standalone="no"?><!DOCTYPE svg PUBLIC "-//W3C//DTD SVG 1.1//EN" "http://www.w3.org/Graphics/SVG/1.1/DTD/svg11.dtd"><svg t="1540541915694" class="icon" style="" viewBox="0 0 1092 1024" version="1.1" xmlns="http://www.w3.org/2000/svg" p-id="6485" xmlns:xlink="http://www.w3.org/1999/xlink" width="213.28125" height="200"><defs><style type="text/css"></style></defs><path d="M793.873067 752.0256L646.690133 477.866667H648.533333c18.8416 0 34.133333-15.291733 34.133334-34.133334 0-17.8176-13.789867-32.017067-31.266134-33.5872l53.8624-84.650666a33.979733 33.979733 0 0 0 1.160534-34.679467A34.218667 34.218667 0 0 0 676.4544 273.066667H415.812267a34.218667 34.218667 0 0 0-29.969067 17.749333 34.107733 34.107733 0 0 0 1.160533 34.747733l53.8624 84.650667C423.389867 411.716267 409.6 425.915733 409.6 443.733333c0 18.8416 15.291733 34.133333 34.133333 34.133334h1.8432L298.3936 752.0256A214.724267 214.724267 0 0 0 273.066667 853.333333c0 94.139733 73.796267 170.666667 164.4544 170.666667h217.224533C745.403733 1024 819.2 947.473067 819.2 853.333333c0-35.4304-8.738133-70.382933-25.326933-101.307733zM614.263467 341.333333l-43.4176 68.266667h-49.425067l-43.4176-68.266667h136.260267z m40.482133 614.4H437.521067C384.477867 955.733333 341.333333 909.789867 341.333333 853.333333c0-24.1664 5.9392-48.059733 17.2032-69.085866L523.0592 477.866667h46.148267l164.522666 306.3808A146.7392 146.7392 0 0 1 750.933333 853.333333c0 56.456533-43.144533 102.4-96.187733 102.4z m412.330667-476.910933C1083.5968 510.3616 1092.266667 545.314133 1092.266667 580.266667c0 45.602133-16.9984 88.2688-47.854934 120.081066C1014.5792 732.706133 972.936533 750.933333 927.744 750.933333h-37.546667c-18.8416 0-34.133333-15.291733-34.133333-34.133333s15.291733-34.133333 34.133333-34.133333h37.546667c25.873067 0 49.698133-10.376533 67.037867-29.2864C1013.896533 633.787733 1024 607.982933 1024 580.266667c0-23.9616-5.9392-47.991467-17.2032-69.495467L842.478933 204.8h-46.762666l-6.007467 10.922667c-9.079467 16.657067-29.969067 22.528-46.353067 13.5168-9.557333-5.188267-15.086933-14.472533-16.725333-24.439467H716.8c-18.8416 0-34.133333-15.291733-34.133333-34.133333 0-17.8176 13.7216-31.9488 31.1296-33.518934l-53.794134-84.650666a34.2272 34.2272 0 0 1-1.160533-34.816A34.286933 34.286933 0 0 1 688.810667 0h260.778666c12.4928 0 23.9616 6.826667 29.969067 17.681067a34.3808 34.3808 0 0 1-1.160533 34.816l-53.794134 84.650666c17.408 1.570133 31.1296 15.701333 31.1296 33.518934 0 18.8416-15.291733 34.133333-34.133333 34.133333h-1.6384l147.114667 274.0224zM844.117333 136.533333L887.466667 68.266667H750.933333l43.349334 68.266666h49.834666zM433.425067 17.681067a34.3808 34.3808 0 0 1-1.160534 34.816l-53.794133 84.650666C395.8784 138.717867 409.6 152.849067 409.6 170.666667c0 18.8416-15.291733 34.133333-34.133333 34.133333h-9.8304c-1.706667 9.966933-7.236267 19.2512-16.7936 24.439467-16.315733 9.0112-37.2736 3.140267-46.2848-13.5168L296.5504 204.8h-46.762667L85.333333 511.044267A150.024533 150.024533 0 0 0 68.266667 580.266667c0 27.716267 10.103467 53.521067 28.535466 72.4992C114.756267 672.290133 138.6496 682.666667 164.522667 682.666667h37.546666c18.8416 0 34.133333 15.291733 34.133334 34.133333s-15.291733 34.133333-34.133334 34.133333h-37.546666c-45.192533 0-86.8352-18.2272-117.3504-51.268266C16.9984 668.535467 0 625.8688 0 580.266667c0-34.952533 8.669867-69.905067 25.053867-101.1712L172.305067 204.8H170.666667c-18.8416 0-34.133333-15.291733-34.133334-34.133333 0-17.8176 13.7216-31.9488 31.1296-33.518934l-53.794133-84.650666a34.2272 34.2272 0 0 1-1.160533-34.816A34.286933 34.286933 0 0 1 142.677333 0h260.778667c12.4928 0 23.9616 6.826667 29.969067 17.681067zM297.984 136.533333L341.333333 68.266667H204.8l43.349333 68.266666h49.834667z" fill="#20A0FF" p-id="6486"></path></svg>