<?xml version="1.0" standalone="no"?><!DOCTYPE svg PUBLIC "-//W3C//DTD SVG 1.1//EN" "http://www.w3.org/Graphics/SVG/1.1/DTD/svg11.dtd"><svg t="1540541895502" class="icon" style="" viewBox="0 0 1024 1024" version="1.1" xmlns="http://www.w3.org/2000/svg" p-id="6355" xmlns:xlink="http://www.w3.org/1999/xlink" width="200" height="200"><defs><style type="text/css"></style></defs><path d="M626.428146 630.106932c0-17.156752-7.164167-32.879851-18.451234-44.672432-11.030218-10.809183-26.261107-17.673521-42.201148-18.180058l-2.211365-0.217964-15.505136 0-15.476483 0L491.119437 567.036477l-15.476483 0-14.985296 0c-5.91164 0-11.275811-2.471284-15.451924-6.40078-3.698229-3.683902-6.387477-9.104355-6.387477-14.97097l0-21.129226 0-0.74906 0-24.295336 0-0.477884 0-21.11183c0-5.925966 2.689249-11.561313 6.387477-15.258519 4.176113-3.919263 9.540284-6.361895 15.451924-6.361895l14.985296 0 15.476483 0 41.463344 0 15.476483 0 15.505136 0c5.884011 0 11.272741 2.442632 15.448854 6.361895 3.919263 3.698229 6.14393 9.333576 6.14393 15.258519 0 11.287067 9.0624 20.595061 20.87954 20.595061 11.054777 0 20.390399-9.307993 20.390399-20.595061 0-17.458627-7.164167-32.93511-18.451234-44.725644-11.287067-11.287067-27.241434-18.643616-44.412512-18.643616l-30.981618 0 0-17.676591c0-11.790534-9.048073-20.87954-20.335141-20.87954-11.821233 0-21.129226 9.090029-21.129226 20.87954l0 17.676591-30.461779 0c-17.198707 0-33.154098 7.356548-44.932352 18.643616-11.301394 11.790534-18.669198 27.267017-18.669198 44.725644l0 21.11183 0 0.477884 0 24.295336 0 0.74906 0 21.129226c0 17.195637 7.367805 32.904411 18.669198 44.191478 11.301394 11.040451 26.288736 18.180058 42.461067 18.643616l2.471284 0 14.985296 0 15.476483 0 41.463344 0 26.314319 0 4.668323 0c5.609765 0 11.272741 2.484587 14.959713 6.40078 3.930519 3.919263 6.633071 9.335622 6.633071 15.205307 0 22.61609 0 45.189202 0 67.790966 0 5.417383-2.224668 10.780531-6.14393 14.985296-4.176113 4.161786-9.564843 6.358825-15.448854 6.358825l-4.668323 0-26.314319 0L491.119437 719.240995l-15.476483 0-14.985296 0c-5.91164 0-11.275811-2.196015-15.451924-6.358825-3.698229-4.203742-6.387477-9.567913-6.387477-14.985296 0-11.287067-9.117658-20.85498-20.419052-20.85498-11.764951 0-21.097504 9.567913-21.097504 20.85498 0 17.182334 7.122211 32.904411 18.696828 44.438095 11.505032 11.314697 27.459399 18.425651 44.658106 18.425651l30.461779 0 0 17.933441c0 11.533684 9.307993 20.869307 21.129226 20.869307 11.287067 0 20.335141-9.335622 20.335141-20.869307l0-17.933441 30.981618 0c17.171078 0 33.125445-7.110955 44.412512-18.425651 11.803837-11.532661 18.451234-27.255761 18.451234-44.438095l0-46.173622 0-1.937119L626.428146 630.106932 626.428146 630.106932zM911.242913 905.624962 911.242913 905.624962c-16.460904-20.868283-32.647561-54.524824-44.919049-91.580788-11.776208-36.331463-19.421328-75.377758-19.421328-108.025319L846.902536 542.962176c0-92.085278-37.805024-176.076204-98.457406-236.471736-32.647561-32.440853-69.25327-56.954153-108.530832-72.691579-19.410072-7.860015-38.299281-13.755282-58.444087-17.673521l95.293343-94.773504c5.869684-6.40078 9.525957-15.012925 9.525957-24.580838 0-19.150152-14.94334-34.381042-34.339086-34.381042L372.242979 62.389956c-9.0624 0-17.673521 3.194762-24.541953 9.842159-13.484106 13.758352-13.484106 35.361369 0 49.119721l94.776573 94.773504c-19.899212 3.919263-39.526225 9.813506-58.44204 17.673521-39.035038 15.736403-75.886341 40.250726-108.766193 72.691579-30.707372 30.682813-55.752792 67.790966-72.677253 108.530832-16.21224 39.526225-25.329898 82.997296-25.329898 127.940904l0 163.05668c0 32.647561-7.834432 71.693856-19.87056 108.025319-11.764951 36.08894-27.270087 68.993351-43.702338 89.61604-5.406127 6.40078-8.597819 14.507412-8.597819 23.093974 0 19.652596 15.245216 34.855856 34.145681 34.855856l745.242182 0c7.614421 0 15.230889-2.442632 21.618367-7.600095C920.825153 941.985078 923.279041 920.364665 911.242913 905.624962L911.242913 905.624962zM568.450686 131.164319 568.450686 131.164319l-56.203046 56.462966-56.722886-56.462966L568.450686 131.164319 568.450686 131.164319zM200.859657 892.373147 200.859657 892.373147c8.094352-17.673521 16.200984-37.055964 22.574135-56.968479 14.018272-42.718941 23.093974-89.370447 23.093974-129.385812L246.527766 542.962176c0-36.100196 6.892991-70.234621 20.159132-101.44853 12.994965-32.400944 33.383318-61.362556 57.9529-86.406952 25.765827-26.028816 54.975079-44.672432 85.683475-57.46069 32.658817-13.511735 67.503417-19.624966 101.406574-19.392676l0.983397 0c34.366715-0.232291 68.512397 5.880941 101.18861 19.392676 30.204929 12.788258 59.425438 31.431873 85.683475 57.46069 48.39829 48.627511 78.328973 114.903983 78.328973 187.855482l0 163.05668c0 40.015366 8.583492 86.666872 22.574135 129.385812 6.892991 19.912515 14.507412 39.294958 22.861684 56.968479L200.859657 892.373147 200.859657 892.373147z" p-id="6356"></path></svg>