<?xml version="1.0" standalone="no"?><!DOCTYPE svg PUBLIC "-//W3C//DTD SVG 1.1//EN" "http://www.w3.org/Graphics/SVG/1.1/DTD/svg11.dtd"><svg t="1542870476989" class="icon" style="" viewBox="0 0 1024 1024" version="1.1" xmlns="http://www.w3.org/2000/svg" p-id="1639" xmlns:xlink="http://www.w3.org/1999/xlink" width="200" height="200"><defs><style type="text/css"></style></defs><path d="M677 350.33333333C713 314.33333333 752 260.33333333 752 203.33333333c0-33-9-60-30-81C683 83.33333333 614 83.33333333 536 83.33333333l-21 0c-12 0-24 0-36 0C404 83.33333333 344 83.33333333 305 119.33333333c-21 21-30 48-30 84 0 60 39 111 72 147-132 69-222 207-222 348 0 261 264 261 390 261s390 0 390-261C905 554.33333333 812 419.33333333 677 350.33333333zM605 596.33333333c18 0 30 12 30 30s-12 30-30 30l-60 0 0 30 60 0c18 0 30 12 30 30s-12 30-30 30l-60 0 0 63c0 18-12 30-30 30s-30-12-30-30l0-63-60 0c-18 0-30-12-30-30s12-30 30-30l60 0 0-30-60 0c-18 0-30-12-30-30s12-30 30-30l60 0 0-18-84-81c-12-12-12-30 0-42 12-12 30-12 42 0l75 72 75-72c12-12 30-12 42 0 12 12 12 30 0 42l-90 87 0 12L605 596.33333333z" p-id="1640"></path></svg>