<?xml version="1.0" standalone="no"?><!DOCTYPE svg PUBLIC "-//W3C//DTD SVG 1.1//EN" "http://www.w3.org/Graphics/SVG/1.1/DTD/svg11.dtd"><svg t="1540628182317" class="icon" style="" viewBox="0 0 1024 1024" version="1.1" xmlns="http://www.w3.org/2000/svg" p-id="906" xmlns:xlink="http://www.w3.org/1999/xlink" width="200" height="200"><defs><style type="text/css"></style></defs><path d="M717.78773333 124.12942222c0 18.47893333 0 36.96213333 0 55.44106667 83.14666667-0.57386667 133.61493333-4.3136 168.84693334 45.26933333 25.6768 36.13653333 21.36106667 79.54133333 21.36106666 140.38186667 0 86.62826667 0 173.28213333 0 259.9104 0 54.7584 0 109.53173333 0 164.288 0.00213333 29.17973333 2.96746667 64.29226667-4.06826666 87.48586666-13.05386667 43.03786667-45.1328 71.54773333-93.0688 79.85493334-52.3776 0.16853333-104.77226667 0.3392-157.14986667 0.50773333-101.536 0-203.10186667 0-304.63573333 0-27.46026667 0-54.92906667 0-82.38933334 0-14.0672 0-30.23146667 1.4208-42.72-1.0176-42.38933333-8.27733333-72.21546667-33.36533333-86.4576-69.6832-7.904-20.15573333-7.12106667-48.1408-7.11893333-76.80426667 0-28.65066667 0-57.30986667 0-85.9584 0-112.56533333 0-225.16693333 0-337.73226666 0-24.91946667 0-49.8496 0-74.76906667 0-15.08266667-1.0176-31.3088 2.0352-43.74186667 4.8576-19.7888 13.4784-35.64373333 24.41173333-49.3376 34.98666667-43.82293333 86.72853333-38.80533333 163.76106667-38.656 0-18.47893333 0-36.96213333 0-55.44106666 26.27413333 0 52.55466667 0 78.8288 0 27.62026667-39.85493333 98.08213333-70.02666667 166.304-49.3376 22.9376 6.9568 40.97706667 18.26346667 57.46986667 31.53493333 5.2544 5.9328 10.51093333 11.86773333 15.76533333 17.80266667C665.23306667 124.12942222 691.5136 124.12942222 717.78773333 124.12942222zM380.09386667 179.57048889c0 37.1264 0 74.26346667 0 111.38986666 92.72106667 0 185.46986667 0 278.19093333 0 0-37.1264 0-74.26346667 0-111.38986666-20.68053333 0-41.36533333 0-62.04586667 0 0.08106667-37.59146667-50.6304-63.31306667-94.0864-54.42346667-31.33866667 6.41066667-56.45866667 20.544-60.52053333 54.42346667C421.12213333 179.57048889 400.60586667 179.57048889 380.09386667 179.57048889zM319.57333333 457.79342222c-5.68746667 2.624-11.5776 3.65653333-15.2576 8.13866667-12.90026667 15.71413333-5.8752 39.61173333 11.18933334 45.77706666 7.04 2.54293333 19.2 1.01973333 27.97226666 1.0176 23.7312 0 47.4688 0 71.2 0 76.61866667 0 153.25866667 0 229.8752 0 39.59253333 0.00426667 90.19306667 10.368 96.62933334-24.41386666 7.55413333-40.8192-61.22666667-30.5216-96.1216-30.51733334C536.576 457.79342222 428.05973333 457.79342222 319.57333333 457.79342222zM322.62613333 596.14008889c-6.70293333 2.72213333-11.84213333 3.1296-16.78293333 7.12106666-15.15946667 12.24746667-8.0512 39.80586667 7.12106667 46.2848 7.5392 3.2192 20.52693333 2.03733333 31.02293333 2.0352 22.54506667 0 45.09653333 0 67.63946667 0 77.63413333 0 155.29386667 0 232.928 0 38.6496 0.00426667 89.9968 9.96906667 96.62933333-23.39626666 8.34773333-41.9904-59.6928-32.04693333-95.104-32.0448C538.272 596.14008889 430.432 596.14008889 322.62613333 596.14008889zM322.11626667 734.99875555c-6.35733333 2.7008-11.50293333 3.26613333-16.2752 7.12106667-15.15946667 12.24746667-8.0512 39.80586667 7.12106666 46.2848 7.5392 3.2192 20.52693333 2.03733333 31.02293334 2.0352 22.54506667 0 45.09653333 0 67.63946666 0 77.63413333 0 155.29386667 0 232.928 0 38.63466667 0.00426667 90.00106667 9.94773333 96.62933334-23.39626667 8.36693333-42.0864-60.128-32.04693333-95.61173334-32.0448C537.76426667 734.99875555 429.92426667 734.99875555 322.11626667 734.99875555z" p-id="907"></path></svg>