<?xml version="1.0" standalone="no"?><!DOCTYPE svg PUBLIC "-//W3C//DTD SVG 1.1//EN" "http://www.w3.org/Graphics/SVG/1.1/DTD/svg11.dtd"><svg t="1540948935749" class="icon" style="" viewBox="0 0 1024 1024" version="1.1" xmlns="http://www.w3.org/2000/svg" p-id="1141" xmlns:xlink="http://www.w3.org/1999/xlink" width="200" height="200"><defs><style type="text/css"></style></defs><path d="M315.125 455.75c108.80859375 0 196.875-88.06640625 196.875-196.875S423.93359375 62 315.125 62 118.25 150.06640625 118.25 258.875s88.06640625 196.875 196.875 196.875z m0-281.25c46.58203125 0 84.375 37.79296875 84.375 84.375s-37.79296875 84.375-84.375 84.375-84.375-37.79296875-84.375-84.375 37.79296875-84.375 84.375-84.375z m393.75 393.75c-108.80859375 0-196.875 88.06640625-196.875 196.875s88.06640625 196.875 196.875 196.875 196.875-88.06640625 196.875-196.875-88.06640625-196.875-196.875-196.875z m0 281.25c-46.58203125 0-84.375-37.79296875-84.375-84.375s37.79296875-84.375 84.375-84.375 84.375 37.79296875 84.375 84.375-37.79296875 84.375-84.375 84.375zM807.83984375 62.3515625l55.546875-0.17578125c34.1015625-0.17578125 54.31640625 38.3203125 34.62890625 66.4453125L254.3046875 943.71875001a42.09960938 42.09960938 0 0 1-34.453125 17.92968749l-58.7109375 0.17578125c-34.27734375 0-54.31640625-38.49609375-34.62890625-66.4453125l646.875-815.09765626C781.296875 69.03124999 794.12890625 62.3515625 807.83984375 62.3515625z" fill="" p-id="1142"></path></svg>