<?xml version="1.0" standalone="no"?><!DOCTYPE svg PUBLIC "-//W3C//DTD SVG 1.1//EN" "http://www.w3.org/Graphics/SVG/1.1/DTD/svg11.dtd"><svg t="1557301985705" class="icon" style="" viewBox="0 0 1189 1024" version="1.1" xmlns="http://www.w3.org/2000/svg" p-id="2071" xmlns:xlink="http://www.w3.org/1999/xlink" width="232.2265625" height="200"><defs><style type="text/css"></style></defs><path d="M594.137507 0c199.190609 344.004472 395.519285 682.285075 594.137507 1024-397.236445 0-790.466182 0-1188.275014 0C198.045836 682.285075 394.946898 343.432085 594.137507 0zM544.912241 645.65232c33.770822 0 65.824483 0 98.450531 0 0-70.975964 0-140.234768 0-209.493572-33.770822 0-65.252096 0-98.450531 0C544.912241 505.989939 544.912241 574.676356 544.912241 645.65232zM545.484628 757.267747c0 35.487982 0 69.258804 0 103.029625 33.198435 0 65.252096 0 97.878144 0 0-34.915595 0-68.686417 0-103.029625C610.164338 757.267747 578.683063 757.267747 545.484628 757.267747z" p-id="2072"></path></svg>