<?xml version="1.0" standalone="no"?><!DOCTYPE svg PUBLIC "-//W3C//DTD SVG 1.1//EN" "http://www.w3.org/Graphics/SVG/1.1/DTD/svg11.dtd"><svg t="1559641618678" class="icon" style="" viewBox="0 0 1024 1024" version="1.1" xmlns="http://www.w3.org/2000/svg" p-id="2052" xmlns:xlink="http://www.w3.org/1999/xlink" width="200" height="200"><defs><style type="text/css"></style></defs><path d="M128 896 1024 896 1024 1024 0 1024 0 0 128 0ZM288 832C234.976 832 192 789.024 192 736 192 682.976 234.976 640 288 640 290.816 640 293.632 640.16 296.384 640.384L399.584 468.384C389.728 453.344 384 435.328 384 416 384 362.976 426.976 320 480 320 533.024 320 576 362.976 576 416 576 435.328 570.272 453.344 560.416 468.384L663.616 640.384C666.368 640.16 669.184 640 672 640 674.144 640 676.256 640.096 678.336 640.224L848.704 342.112C838.176 326.688 832 308.064 832 288 832 234.976 874.976 192 928 192 981.024 192 1024 234.976 1024 288 1024 341.024 981.024 384 928 384 925.856 384 923.744 383.904 921.664 383.776L751.296 681.888C761.824 697.312 768 715.936 768 736 768 789.024 725.024 832 672 832 618.976 832 576 789.024 576 736 576 716.672 581.728 698.656 591.584 683.584L488.384 511.616C485.632 511.84 482.816 512 480 512 477.184 512 474.368 511.84 471.616 511.616L368.416 683.616C378.272 698.656 384 716.672 384 736 384 789.024 341.024 832 288 832Z" p-id="2053"></path></svg>