<?xml version="1.0" standalone="no"?><!DOCTYPE svg PUBLIC "-//W3C//DTD SVG 1.1//EN" "http://www.w3.org/Graphics/SVG/1.1/DTD/svg11.dtd"><svg t="1542873116282" class="icon" style="" viewBox="0 0 1024 1024" version="1.1" xmlns="http://www.w3.org/2000/svg" p-id="3457" xmlns:xlink="http://www.w3.org/1999/xlink" width="200" height="200"><defs><style type="text/css"></style></defs><path d="M780.093433 65.267493 243.991502 65.267493c-98.774631 0-178.700985 80.013335-178.700985 178.744987l0 536.105001c0 98.642624 79.925331 178.61298 178.700985 178.61298l536.102954 0c98.600669 0 178.615027-79.969333 178.615027-178.61298L958.709483 244.01248C958.70846 145.280828 878.695125 65.267493 780.093433 65.267493zM869.44546 735.441978c0 73.994248-60.033281 133.981481-134.027529 133.981481L288.667004 869.423459c-73.994248 0-134.115534-59.987233-134.115534-133.981481L154.55147 288.687982c0-74.03825 60.121286-134.113487 134.115534-134.113487l446.750927 0c73.994248 0 134.027529 60.075237 134.027529 134.113487L869.44546 735.441978zM243.991502 646.045949l89.348957 0 0 134.071532L467.367989 646.045949l312.726467 0L780.094456 244.01248 243.991502 244.01248 243.991502 646.045949zM333.340459 333.319481l357.316012 0 0 44.675502L333.340459 377.994983 333.340459 333.319481zM333.340459 422.627507l357.316012 0 0 44.673455L333.340459 467.300962 333.340459 422.627507zM333.340459 512.064468l268.051989 0 0 44.676525L333.340459 556.740994 333.340459 512.064468z" p-id="3458"></path></svg>