<?xml version="1.0" standalone="no"?><!DOCTYPE svg PUBLIC "-//W3C//DTD SVG 1.1//EN" "http://www.w3.org/Graphics/SVG/1.1/DTD/svg11.dtd"><svg t="1540630467754" class="icon" style="" viewBox="0 0 1024 1024" version="1.1" xmlns="http://www.w3.org/2000/svg" p-id="1096" xmlns:xlink="http://www.w3.org/1999/xlink" width="200" height="200"><defs><style type="text/css"></style></defs><path d="M927.57333334 803.27111111L927.57333334 851.81629667C927.57333334 905.216 883.88266667 948.90666667 830.48296334 948.90666667L150.85037 948.90666667C96.96521444 948.90666667 53.76 905.216 53.76 851.81629667L53.76 172.18370333C53.76 118.784 97.45066667 75.09333333 150.85037 75.09333333L830.48296334 75.09333333C883.88266667 75.09333333 927.57333334 118.784 927.57333334 172.18370333L927.57333334 220.72888889 490.66666667 220.72888889C436.78151112 220.72888889 393.57629668 264.41955555 393.57629668 317.81925888L393.57629668 706.18074112C393.57629668 759.58044445 437.26696334 803.27111111 490.66666667 803.27111111M490.66666667 706.18074112L976.1185189 706.18074112 976.1185189 317.81925888 490.66666667 317.81925888M684.84740779 584.81777778C644.55490333 584.81777778 612.02963001 552.29250333 612.02963001 512 612.02963001 471.70749667 644.55490333 439.18222222 684.84740779 439.18222222 725.13991112 439.18222222 757.66518557 471.70749667 757.66518557 512 757.66518557 552.29250333 725.13991112 584.81777778 684.84740779 584.81777778Z" p-id="1097"></path></svg>